<svg xmlns="http://www.w3.org/2000/svg" xmlns:xlink="http://www.w3.org/1999/xlink" version="1.1" x="0px" y="0px" viewBox="0 0 360.8118 517.903125" enable-background="new 0 0 360.8118 414.3225" xml:space="preserve"><g><path d="M278.7317,5.7385c-0.5942-0.6699-1.561-0.8643-2.3677-0.4746l-47.1549,22.7805l-16.9135-17.7356   c-0.5171-0.5439-1.2959-0.7529-2.0132-0.5381c-0.7188,0.2119-1.2588,0.8076-1.3989,1.5439l-5.5183,29.0225L82.01,0.1018   c-0.7686-0.2549-1.6152-0.0215-2.144,0.5928L68.8567,13.4651c-0.2896,0.335-0.459,0.7578-0.4824,1.2002l-4.4033,83.2295   c-0.0396,0.7432,0.3369,1.4463,0.977,1.8262c0.6406,0.3789,1.438,0.3711,2.0713-0.0195l8.9302-5.5186l55.2252,22.6929   c-0.2477,0.9299-0.5722,1.9432-0.8521,2.811c-0.6333,1.9648-1.2886,3.9971-1.498,5.8291   c-0.3354,2.9385,2.5332,7.6348,6.9478,14.4649c1.4238,2.2021,3.0317,4.6895,3.3428,5.5449   c0.3428,3.5898-7.2705,34.7852-9.3682,39.6455c-1.3878,3.2133-5.6912,13.2861-8.4344,19.7111   c-0.6315-1.885-1.3301-3.576-1.7927-4.6349c0.1016-1.8584,0.1382-6.7676-2.0249-9.5566c-0.2085-1.6963-1.0381-5.8154-4.2607-8.0283   c0.2817-2.7334,0.7319-7.625,0.5098-9.1055c-0.1597-1.0625-0.4258-2.832-13.6152-7.0234   c-3.5889-4.9424-29.7075-38.3447-68.0981-21.5957C-7.3753,162.1272-0.554,194.1516,2.3591,207.8264   c0.1616,0.7588,0.3105,1.458,0.4365,2.0898c2.54,12.7002,17.6143,23.4062,23.2178,24.9824   c4.1104,1.1558,13.5682,7.4131,17.7024,12.3047l-0.0422-0.0117c-1.4868,5.3691-10.2114,13.5752-13.4478,16.2832l0.0009,0.001   c-0.22,0.1842-0.4011,0.4149-0.5262,0.6807c-0.2471,0.5234-0.2549,1.1299-0.021,1.6602c1.3896,3.1543,2.248,6.917,1.7661,7.7412   c-1.8643,3.1074-3.2964,23.0684,0.73,48.5703c2.2144,14.0244,2.3457,27.3818,2.5117,44.293   c0.1299,13.2295,0.2773,28.2236,1.4307,47.332l3.9932-0.2402c-0.0236-0.3906-0.0443-0.7693-0.067-1.1565   c-1.0844-18.4543-1.2301-33.0637-1.3568-45.9744c-0.168-17.0752-0.3003-30.5625-2.5606-44.877   c-4.02-25.4629-2.3125-43.8311-1.2514-45.8887c1.4058-2.3428,0.3076-6.5303-0.6812-9.2754   c10.6318-2.8926,26.7173-6.5947,30.5303-5.6631c1.2393,0.3018,3.4102,1.0771,5.9238,1.9756   c9.7134,3.4717,25.9712,9.2822,36.1885,5.5557l-1.3711-3.7578c-1.0832,0.395-2.2668,0.6558-3.5224,0.8097   c-1.2551-1.0681-1.7822-7.213-1.3951-11.8653c0.0161-0.1914,0.145-0.918,0.2588-1.5586c0.8096-4.5508,1.604-9.666,0.7827-12.7705   c-0.7979-3.0137,0.9229-8.5215,4.3374-11.1045c0.3506-0.2651,0.7646-0.5664,1.2065-0.8845   c1.697,0.9124,8.0234,4.7175,8.9272,11.1287c1.0068,7.1387,1.8989,17.4102-1.9575,24.1592   c-2.5138,4.3994-1.4614,8.6514,0.0986,11.6938c-14.0845-2.0559-29.398-2.9019-30.4023-2.9556l-0.2139,3.9941   c0.3813,0.0205,38.2793,2.1064,49.1768,7.4766c0.3296,0.1621,0.6953,0.2295,1.0625,0.1982   c5.5532-0.4971,10.3125-1.8887,15.3511-3.3623c8.3218-2.4336,16.9185-4.9443,30.0581-3.4521   c1.6807,3.1484,7.3701,16.0537,1.1294,36.9473c-5.8857,19.7031-8.7061,27.8652-9.644,30.4561   c-4.7607,0.999-23.1167,5.1963-29.5039,11.7363c-1.9624,2.0098-4.3652,4.3584-6.9092,6.8447   c-6.4683,6.3213-13.1572,12.8574-14.8872,16.0615l3.5195,1.9004c1.4414-2.668,8.4951-9.5615,14.1631-15.1016   c1.4703-1.4366,2.8813-2.8179,4.2045-4.1287c0.9886,6.0083,2.8832,17.4788,3.8292,22.9167   c1.0485,6.0315,1.4657,22.6772,1.5836,28.5999c0.0258,1.2982,0.0375,2.0896,0.038,2.1316l4-0.0566   c-0.0137-0.9639-0.3481-23.6963-1.6812-31.3604c-1.1265-6.4783-3.6064-21.5585-4.2816-25.6729   c5.9413-5.0701,21.8981-9.0304,27.7909-10.168c0.668-0.1289,1.2251-0.5889,1.478-1.2207   c0.0787-0.1973,1.5711-3.9746,5.6702-17.1343c3.3597-1.6929,28.3177-14.335,35.0007-19.6382   c3.4819-2.7637,5.6851-2.9609,8.2363-3.1904c2.0703-0.1855,4.417-0.3965,7.2632-2.0381   c4.1084-2.3701,9.2451-11.1836,16.1655-27.7373l0.311-0.7422c0.3408-0.8096,1.229-2.6631,2.3535-5.0098   c4.501-9.3936,13.8672-28.9404,15.9312-39.5303c2.5771-13.2207,8.6841-34.0166,10.8906-37.0869   c1.4478-2.0137,1.9014-4.4746,2.3018-6.6455c0.3867-2.0967,0.752-4.0771,1.8926-5.2178c0.4883-0.4883,1.2271-1.2451,2.1416-2.1816   c4.459-4.5664,13.7378-14.0684,17.3013-16.2402c2.6786-1.6331,4.4468-5.3296,5.7654-8.9589l54.924-53.8536l-0.0038-0.0039   c0.3012-0.2954,0.5085-0.6783,0.5775-1.1035c0.0962-0.5918-0.0786-1.1963-0.4766-1.6465L278.7317,5.7385z M297.3972,125.5891   l-0.4635,0.3716l1.2055-1.5109c0.6332,1.3378,1.3928,3.3529,1.648,5.6819C298.8351,127.4114,297.489,125.7029,297.3972,125.5891z    M287.6778,131.1477c-0.1535-2.0015-0.8972-5.4802-3.285-7.3428c-1.0605-0.8271-2.875-1.6602-5.4985-0.9219   c-1.4269,0.4011-2.6232,1.2059-3.6442,2.2285l-68.2064-82.7061l5.0425-26.5205l91.23,95.6641L287.6778,131.1477z    M119.5159,274.9079c-1.452-1.76-4.4341-6.1929-1.9399-10.5581c0.6804-1.1906,1.2242-2.4554,1.675-3.7639   c3.9906-2.5894,26.142-17.1555,29.1575-23.3533c2.9903-6.1455,8.0386-36.9283,9.6974-53.4583l35.91,51.4436   c0.3193,0.457,0.8149,0.7607,1.3672,0.8369c0.0913,0.0127,0.1821,0.0186,0.2729,0.0186c0.46,0,0.9097-0.1592,1.2695-0.4541   l29.7798-24.46l17.6508-10.7222c-4.7664,11.2482-10.2159,22.5906-14.4227,27.813c-9.8608,12.2402-18.6787,29.706-20.1318,33.5801   c-1.0552,2.8145-4.0737,5.877-5.1685,6.9268c-6.0604,1.0635-18.6469,3.3518-22.6296,4.077   c-0.3228-0.3947-0.7783-0.661-1.2884-0.7264c-14.5215-1.8438-24.1582,0.9766-32.6616,3.4639   c-4.6772,1.3682-9.104,2.6621-14.0498,3.166C130.621,277.2002,125.3692,275.9358,119.5159,274.9079z M141.0207,106.1584   c-2.7144-4.1758-9.0332-4.1631-9.293-4.1582c-0.3003,0.0029-0.5962,0.0742-0.8657,0.207   c-1.4795,0.7305-2.4146,1.7734-2.7778,3.0996c-0.6675,2.4314,0.8839,4.8807,2.1757,6.8689L77.8512,90.6404L83.215,4.7152   l118.9156,39.4266l-38.5999,81.7256l-20.2903-8.3513C143.4043,114.117,142.9278,109.0918,141.0207,106.1584z M232.128,79.1096   l-11.5748,18.8853l-53.8146,31.2473c-0.0303-0.1882-0.0779-0.369-0.1157-0.5542l38.7432-82.0293L232.128,79.1096z M79.0141,7.8082   l-5.1799,82.9801l-5.667,3.502l4.165-78.7314L79.0141,7.8082z M166.4865,136.623l56.2867,72.5891l-26.7154,21.9434   l-37.4119-53.5956c1.3206-15.5381,3.2122-26.6168,3.9558-28.6007c0.0962-0.2559,0.2275-0.5869,0.3843-0.9834   C163.9419,145.5635,165.6678,141.1907,166.4865,136.623z M246.8652,194.3774l-0.0637-0.1047l-12.208,7.4155l17.709-21.491   C250.8592,184.2082,248.9789,189.1545,246.8652,194.3774z M255.2331,167.4221c0.0391,1.1057,0.0719,2.0852,0.0524,2.8661   l-29.6925,36.0333l-58.0001-74.7994l53.5446-31.0907l39.9043,48.5927c-0.5809,0.582-1.145,1.127-1.6744,1.6129   C254.7888,154.8401,255.0564,162.4114,255.2331,167.4221z M262.7209,147.2871l-39.834-48.5076l10.8557-17.7122l39.0927,47.4031   c-1.8563,3.5105-2.6141,7.615-2.8654,9.3726C269.7372,139.1643,266.207,143.572,262.7209,147.2871z M307.4153,110.052   l-75.306-78.9664l44.6312-21.5609l78.9517,89.1797l-44.2041,25.5605c-1.401-3.8872-3.1237-7.3976-4.6929-8.8877   c-0.2466-0.2346-0.5159-0.5015-0.7955-0.7786l1.5318-1.9197C308.155,111.8977,308.1057,110.7756,307.4153,110.052z    M313.7639,132.2864c-0.261-1.3049-0.6104-2.707-1.0179-4.1283l33.3606-19.2902l-35.1344,34.4497   C312.8465,140.426,314.5933,136.4343,313.7639,132.2864z M42.9102,259.988c-1.4883,0.3556-2.9114,0.7083-4.2328,1.0435   c2.3951-2.4602,5.0175-5.4658,6.8431-8.4353C44.8615,256.6433,43.3671,259.2632,42.9102,259.988z M103.5129,224.7727   c-4.8335,3.6572-6.9312,11.0078-5.7905,15.3174c0.6646,2.5107-0.3994,8.4922-0.8535,11.0469   c-0.186,1.0469-0.2769,1.5654-0.3071,1.9268c-0.1311,1.5789-0.5427,8.0646,0.9871,12.3269   c-8.4572-0.3987-18.7155-4.0593-25.5545-6.5037c-2.7275-0.9746-4.8818-1.7451-6.3247-2.0957   c-3.0823-0.7489-10.5136,0.4788-17.737,2.0491c0.7205-1.8022,1.4388-4.2195,1.7487-7.1633   c0.8774-8.332-17.9336-19.3213-22.585-20.6289c-5.0312-1.416-18.2798-11.4229-20.3784-21.917   c-0.1289-0.6465-0.2812-1.3613-0.4468-2.1387c-2.7095-12.7188-9.0542-42.5049,27.3589-58.3887   c15.9399-6.9521,31.4399-5.6289,46.0669,3.9355c11.061,7.2334,17.4609,16.7129,17.5239,16.8086   c0.2534,0.3789,0.6304,0.6621,1.0659,0.7988c4.5986,1.4434,10.022,3.4922,11.5269,4.4932   c0.0088,1.5254-0.3257,5.5371-0.6958,8.9033c-0.0962,0.873,0.3887,1.707,1.1958,2.0557c2.9878,1.2881,3.25,5.9678,3.2524,6.0078   c0.021,0.5127,0.2388,0.998,0.6079,1.3545c1.2178,1.1777,1.5098,5.1611,1.3237,7.4805c-0.0278,0.3359,0.0303,0.6738,0.168,0.9824   c1.9102,4.2607,3.5869,9.7959,3.0376,11.2432c-0.71,1.8721-7.9355,6.9521-11.4077,9.3936   C105.7927,223.1174,104.4949,224.0295,103.5129,224.7727z M110.7098,224.5471c6.2683-4.4286,10.7294-7.8138,11.7338-10.4619   c0.2558-0.6743,0.3458-1.5027,0.3212-2.417c1.1757-2.7552,8.7274-20.4497,10.6544-24.9111   c1.71-3.9619,10.7612-38.375,9.543-42.3359c-0.3843-1.249-1.6416-3.2266-3.8306-6.6123   c-2.1201-3.2793-6.5312-10.1035-6.333-11.8379c0.1646-1.4375,0.7578-3.2773,1.3311-5.0566   c0.959-2.9746,1.7871-5.5439,1.2598-7.5654c-0.27-1.0361-0.9653-2.1055-1.7017-3.2383c-0.7295-1.1221-1.9507-3.001-1.7461-3.7461   c0.0288-0.1045,0.1377-0.2256,0.311-0.3486c1.4736,0.0918,4.3003,0.6084,5.4146,2.3223c1.7202,2.6465,1.8481,9.2354,1.356,10.8906   c-0.7017,2.3594-0.2354,6.6953-0.1802,7.1816l3.9746-0.4521c-0.1356-1.1953-0.2287-3.0107-0.1406-4.3481l20.1171,8.2798   c0.8867,5.4736-2.2886,13.4883-3.5269,16.6123c-0.1675,0.4238-0.3081,0.7783-0.4106,1.0527   c-1.1523,3.0742-3.2012,16.8008-4.415,32.335c-1.2661,16.2061-6.8506,49.8809-9.6299,55.5928   c-1.7435,3.5839-14.5122,12.9294-24.2433,19.444c0.7861-5.7904,0.2004-11.9803-0.5468-17.2789   C119.0643,230.8589,113.8223,226.5502,110.7098,224.5471z M183.952,276.5455c5.0775-0.9238,16.6641-3.0272,21.9564-3.9515   c0.3672-0.0635,0.7095-0.2295,0.9878-0.4775c0.2041-0.1826,5.0107-4.5078,6.6504-8.8818   c1.3511-3.6025,10.0723-20.7695,19.502-32.4746c9.9688-12.375,25.8364-55.0381,26.1973-59.5547   c0.0859-1.0703,0.0391-2.3936-0.0151-3.9248c-0.1602-4.5322-0.3794-10.7402,2.8418-13.6963   c1.7334-1.5918,11.2822-11.1494,11.8569-15.1719c0.5513-3.8613,2.4458-10.666,6.0479-11.6797   c1.0859-0.3037,1.6152-0.0391,1.9551,0.2256c1.2251,0.9561,1.791,3.6475,1.7812,4.9707c-0.1851,0.6729-1.3975,2.7656-2.2886,4.3027   c-2.9834,5.1475-4.6187,8.1592-3.5376,10.207c0.5459,1.0342,1.5645,1.5811,2.8091,1.5781c2.9331-0.0742,7.291-3.9736,8.3691-6.292   l-3.4352-1.5984l9.0863-11.3875c0.7549,1.2095,2.1957,4.0042,1.9886,7.4526c-0.2979,4.96-4.1006,11.6045-4.1392,11.6709   l3.4634,2.001c0.1758-0.3047,4.314-7.5234,4.6689-13.4316c0.0439-0.7324,0.0299-1.4382-0.0228-2.1177l2.908,0.5581   c1.2399-6.4601-1.694-12.1074-2.7221-13.8344l2.6306-3.2968c0.1848,0.1819,0.3776,0.3738,0.5475,0.5354   c1.5894,1.5098,4.5317,8.4453,5.8022,14.7949c1.0801,5.4023-4.8164,11.373-5.0679,11.625   c-0.7065,0.7061-1.0898,1.8486-1.9639,4.5957c-1.1035,3.4668-2.9502,9.2686-5.3696,10.7432   c-3.9922,2.4346-13.1572,11.8193-18.0811,16.8613c-0.9004,0.9229-1.6279,1.668-2.1084,2.1484   c-2.02,2.0195-2.5396,4.8359-2.9976,7.3203c-0.356,1.9287-0.6914,3.75-1.6162,5.0371   c-3.0015,4.1748-9.2407,26.7129-11.5684,38.6553c-1.9668,10.0889-11.1831,29.3232-15.6128,38.5674   c-1.1924,2.4893-2.0542,4.2871-2.4326,5.1855l-0.3149,0.752c-8.3726,20.0264-12.6621,24.7705-14.4741,25.8154   c-2.0825,1.2012-3.7227,1.3486-5.6216,1.5195c-2.7876,0.25-5.9468,0.5332-10.3652,4.041   c-5.1925,4.1206-23.0027,13.4136-30.8715,17.446c0.8508-2.7817,1.7864-5.8743,2.8202-9.3347   C189.8428,295.146,186.4119,282.3647,183.952,276.5455z"/></g><text x="0" y="429.3225" fill="#000000" font-size="5px" font-weight="bold" font-family="'Helvetica Neue', Helvetica, Arial-Unicode, Arial, Sans-serif">Created by Gan Khoon Lay</text><text x="0" y="434.3225" fill="#000000" font-size="5px" font-weight="bold" font-family="'Helvetica Neue', Helvetica, Arial-Unicode, Arial, Sans-serif">from the Noun Project</text></svg>